<svg width="2111" height="1505" viewBox="0 0 2111 1505" fill="none" xmlns="http://www.w3.org/2000/svg">
<path d="M1507.83 451.564C1507.83 368.419 1440.33 300.989 1357.08 300.989H753.97C670.722 300.989 603.219 233.613 603.219 150.521C603.219 67.4293 535.716 0 452.467 0H150.752C67.5031 0 0 67.3762 0 150.468C0 233.56 67.5031 300.989 150.752 300.989H452.361C535.609 300.989 603.112 368.366 603.112 451.458C603.112 534.603 535.609 602.032 452.361 602.032H150.752C67.5031 602.032 0 669.408 0 752.5C0 835.592 67.5031 903.021 150.752 903.021H452.361C535.663 903.021 603.166 970.397 603.112 1053.54C603.112 1136.69 535.609 1204.01 452.308 1204.01H150.805C67.5563 1204.01 0 1271.39 0 1354.48C0 1437.57 67.5031 1504.95 150.752 1504.95H452.361C535.609 1504.95 603.112 1437.57 603.112 1354.48C603.112 1271.39 670.615 1203.96 753.864 1203.96H1356.98C1440.22 1203.96 1507.73 1136.58 1507.73 1053.49C1507.73 970.397 1575.23 902.968 1658.48 902.968H1960.09C2043.34 902.968 2110.84 835.592 2110.84 752.5C2110.84 669.408 2043.34 601.979 1960.09 601.979H1658.48C1575.23 601.979 1507.73 534.603 1507.73 451.511L1507.83 451.564ZM1357.08 903.021H753.97C670.722 903.021 603.219 835.645 603.219 752.553C603.219 669.461 670.722 602.032 753.97 602.032H1357.08C1440.33 602.032 1507.83 669.408 1507.83 752.5C1507.83 835.592 1440.33 903.021 1357.08 903.021Z" fill="black"/>
</svg>
