<svg width="92" height="139" viewBox="0 0 92 139" fill="none" xmlns="http://www.w3.org/2000/svg">
<rect width="92" height="139" rx="16" fill="#313131" fill-opacity="0.7"/>
<path d="M46 69C42.15 69 38.8542 67.6292 36.1125 64.8875C33.3708 62.1458 32 58.85 32 55C32 51.15 33.3708 47.8542 36.1125 45.1125C38.8542 42.3708 42.15 41 46 41C49.85 41 53.1458 42.3708 55.8875 45.1125C58.6292 47.8542 60 51.15 60 55C60 58.85 58.6292 62.1458 55.8875 64.8875C53.1458 67.6292 49.85 69 46 69ZM18 97V87.2C18 85.2167 18.511 83.3932 19.533 81.7295C20.555 80.0658 21.9107 78.7977 23.6 77.925C27.2167 76.1167 30.8917 74.7598 34.625 73.8545C38.3583 72.9492 42.15 72.4977 46 72.5C49.85 72.5 53.6417 72.9527 57.375 73.858C61.1083 74.7633 64.7833 76.119 68.4 77.925C70.0917 78.8 71.4485 80.0693 72.4705 81.733C73.4925 83.3967 74.0023 85.219 74 87.2V97H18Z" fill="white"/>
</svg>
