<svg width="100" height="100" viewBox="0 0 100 100" fill="none" xmlns="http://www.w3.org/2000/svg">
<rect width="100" height="100" rx="30" fill="#313131" fill-opacity="0.7"/>
<path d="M66.5 57H61V61.6667H66.5M66.5 47.6667H61V52.3333H66.5M72 66.3333H50V61.6667H55.5V57H50V52.3333H55.5V47.6667H50V43H72M44.5 38.3333H39V33.6667H44.5M44.5 47.6667H39V43H44.5M44.5 57H39V52.3333H44.5M44.5 66.3333H39V61.6667H44.5M33.5 38.3333H28V33.6667H33.5M33.5 47.6667H28V43H33.5M33.5 57H28V52.3333H33.5M33.5 66.3333H28V61.6667H33.5M50 38.3333V29H22.5V71H77.5V38.3333H50Z" fill="white"/>
</svg>
